<?xml version="1.0" encoding="utf-8"?>
<!-- Generator: Adobe Illustrator 15.0.0, SVG Export Plug-In . SVG Version: 6.00 Build 0)  -->
<!DOCTYPE svg PUBLIC "-//W3C//DTD SVG 1.1//EN" "http://www.w3.org/Graphics/SVG/1.1/DTD/svg11.dtd">
<svg version="1.1" id="Layer_1" xmlns="http://www.w3.org/2000/svg" xmlns:xlink="http://www.w3.org/1999/xlink" x="0px" y="0px"
	 width="100px" height="100px" viewBox="0 0 100 100" enable-background="new 0 0 100 100" xml:space="preserve">
<path fill="#707172" stroke="#707172" stroke-miterlimit="10" d="M6.77,61.333c4.704-8.553,19.815-14.885,37.932-15.211
	c-0.524-0.009-1.047-0.019-1.576-0.019c-20.159,0-37.138,6.444-42.326,15.23H6.77z"/>
<path fill="#707172" stroke="#707172" stroke-miterlimit="10" d="M21.151,61.333c3.812-8.446,15.953-14.73,30.578-15.201
	c-0.652-0.019-1.308-0.029-1.965-0.029c-17.117,0-31.532,6.444-35.937,15.23H21.151z"/>
<path fill="#707172" stroke="#707172" stroke-miterlimit="10" d="M37.17,61.333c2.848-8.326,11.818-14.549,22.684-15.173
	c-0.688-0.034-1.375-0.058-2.074-0.058c-13.438,0-24.757,6.444-28.215,15.23L37.17,61.333L37.17,61.333z"/>
<path fill="#707172" stroke="#707172" stroke-miterlimit="10" d="M53.716,61.333c1.847-8.079,7.55-14.176,14.521-15.102
	c-0.756-0.081-1.521-0.128-2.299-0.128c-9.696,0-17.851,6.448-20.349,15.23H53.716z"/>
<path fill="#707172" stroke="#707172" stroke-miterlimit="10" d="M99.2,61.333c-1.533-2.317-3.722-4.479-6.201-6.382v-4.247
	c1.338-0.167,2.39-1.686,2.39-3.555c0-1.981-1.179-3.587-2.628-3.587c-1.45,0-2.627,1.606-2.627,3.587
	c0,1.758,0.929,3.215,2.148,3.522v3.746c-1.83-1.341-3.789-2.543-5.744-3.572v-4.779c1.549-0.187,2.767-1.883,2.767-3.973
	c0-2.214-1.845-4.009-3.041-4.009c-1.199,0-3.043,1.795-3.043,4.009c0,1.965,1.073,3.592,2.489,3.936v4.39
	c-4.356-2.188-8.569-3.486-11.062-3.486c-5.588,0-10.316,6.06-11.888,14.401L99.2,61.333L99.2,61.333z"/>
</svg>
