<?xml version="1.0" encoding="utf-8"?>
<!-- Generator: Adobe Illustrator 15.0.0, SVG Export Plug-In . SVG Version: 6.00 Build 0)  -->
<!DOCTYPE svg PUBLIC "-//W3C//DTD SVG 1.1//EN" "http://www.w3.org/Graphics/SVG/1.1/DTD/svg11.dtd">
<svg version="1.1" id="_x30_1_Tree_1" xmlns="http://www.w3.org/2000/svg" xmlns:xlink="http://www.w3.org/1999/xlink" x="0px"
	 y="0px" width="100px" height="100px" viewBox="0 0 100 100" enable-background="new 0 0 100 100" xml:space="preserve">
<path fill="#707172" stroke="#707172" stroke-miterlimit="10" d="M47.231,76.771V95h5.539V76.771
	c-1.063-0.34-1.996-0.797-2.77-1.356C49.229,75.977,48.293,76.434,47.231,76.771z"/>
<path fill="#707172" stroke="#707172" stroke-miterlimit="10" d="M72.225,52.641c0.539-3.521,0.539-9.338-3.521-10.017
	c0.814-4.734-1.079-12.858-6.355-13.669c-0.545-5.551-1.899-10.964-5.822-11.905C57.742,12.853,54.979,5,50,5
	c-4.979,0-7.74,7.853-6.524,12.049c-3.923,0.941-5.274,6.354-5.816,11.905c-5.279,0.811-7.174,8.934-6.362,13.669
	c-4.06,0.678-4.06,6.495-3.519,10.018c-3.519,0-6.498,6.627-1.894,10.42c-1.831,2.224-1.513,8.873,6.206,8.873
	c0.267,0,0.544-0.013,0.832-0.028c0.765,2.552,5.027,3.978,9.207,3.978c1.816,0,3.614-0.266,5.104-0.83
	c1.155-0.433,2.122-1.045,2.769-1.836c0.649,0.791,1.614,1.403,2.769,1.836c1.492,0.564,3.289,0.83,5.104,0.83
	c4.181,0,8.44-1.426,9.207-3.978c0.285,0.019,0.565,0.028,0.831,0.028c7.721,0,8.038-6.651,6.207-8.873
	C78.721,59.268,75.741,52.641,72.225,52.641z"/>
</svg>
