<?xml version="1.0" encoding="utf-8"?>
<!-- Generator: Adobe Illustrator 15.0.0, SVG Export Plug-In . SVG Version: 6.00 Build 0)  -->
<!DOCTYPE svg PUBLIC "-//W3C//DTD SVG 1.1//EN" "http://www.w3.org/Graphics/SVG/1.1/DTD/svg11.dtd">
<svg version="1.1" id="Layer_1" xmlns="http://www.w3.org/2000/svg" xmlns:xlink="http://www.w3.org/1999/xlink" x="0px" y="0px"
	 width="77.443px" height="100px" viewBox="0 0 77.443 100" enable-background="new 0 0 77.443 100" xml:space="preserve">
<path fill="#707172" stroke="#707172" stroke-miterlimit="10" d="M76.969,76.994l-15.23-21.325h4.127c0.017-0.007,0.035,0,0.055,0
	c1.399,0,2.535-1.133,2.535-2.534c0-0.721-0.303-1.376-0.79-1.838l-14.972-20.96h4.123c0.012,0,0.019,0,0.025,0
	c1.47-0.066,2.562-1.127,2.562-2.534c0-0.721-0.305-1.375-0.786-1.836L40.784,0.999c-0.951-1.331-3.171-1.331-4.123,0L18.565,26.33
	c-0.55,0.774-0.627,1.787-0.192,2.633c0.435,0.841,1.306,1.375,2.255,1.375h4.122L9.517,51.662c-0.552,0.773-0.626,1.786-0.19,2.633
	c0.435,0.842,1.305,1.375,2.253,1.375h4.124L0.471,76.994c-0.551,0.773-0.625,1.792-0.19,2.632c0.435,0.843,1.305,1.376,2.253,1.376
	h27.324v10.131c0,4.889,3.974,8.867,8.864,8.867c4.892,0,8.865-3.979,8.865-8.867V81.002H74.91c0.95,0,1.818-0.533,2.254-1.376
	C77.596,78.786,77.521,77.77,76.969,76.994z M42.523,91.132c0,2.095-1.703,3.8-3.802,3.8c-2.097,0-3.801-1.705-3.801-3.8V81.001
	h7.603V91.132z M47.587,75.932h-2.532h-2.531h-7.603h-2.532h-2.532H7.457l15.23-21.324c0.551-0.773,0.627-1.785,0.193-2.633
	c-0.435-0.841-1.306-1.373-2.254-1.373h-4.125l15.234-21.326c0.55-0.77,0.624-1.787,0.188-2.633
	c-0.434-0.841-1.306-1.375-2.251-1.375h-4.126L38.721,6.831l13.172,18.438h-4.125c-0.945,0-1.816,0.533-2.252,1.375
	c-0.436,0.846-0.358,1.863,0.19,2.633l15.231,21.325h-4.123c-0.948,0-1.818,0.533-2.254,1.375c-0.435,0.847-0.356,1.857,0.192,2.633
	l15.233,21.324h-22.4V75.932z"/>
</svg>
