<?xml version="1.0" encoding="utf-8"?>
<!-- Generator: Adobe Illustrator 15.0.0, SVG Export Plug-In . SVG Version: 6.00 Build 0)  -->
<!DOCTYPE svg PUBLIC "-//W3C//DTD SVG 1.1//EN" "http://www.w3.org/Graphics/SVG/1.1/DTD/svg11.dtd">
<svg version="1.1" id="Layer_1" xmlns="http://www.w3.org/2000/svg" xmlns:xlink="http://www.w3.org/1999/xlink" x="0px" y="0px"
	 width="100px" height="91.667px" viewBox="0 0 100 91.667" enable-background="new 0 0 100 91.667" xml:space="preserve">
<path fill="#707172" stroke="#707172" stroke-miterlimit="10" d="M100,77.777c-1.736,0.695-3.473,1.391-5.557,1.391
	c-4.166,0-6.943-2.778-11.11-2.778c-4.166,0-6.944,2.778-11.11,2.778s-6.945-2.778-11.111-2.778s-6.942,2.778-11.109,2.778
	s-6.944-2.778-11.111-2.778s-6.944,2.778-11.111,2.778s-6.944-2.778-11.111-2.778s-6.944,2.778-11.111,2.778
	c-2.083,0-3.819-0.692-5.556-1.389v8.334c1.734,0.696,3.47,1.387,5.554,1.387c4.167,0,6.944-2.776,11.111-2.776
	S23.612,87.5,27.778,87.5s6.944-2.776,11.111-2.776S45.834,87.5,50,87.5c4.167,0,6.943-2.776,11.111-2.776
	c4.166,0,6.943,2.776,11.111,2.776c4.166,0,6.942-2.776,11.108-2.776c4.167,0,6.942,2.776,11.11,2.776
	c2.082,0,3.818-0.692,5.557-1.389L100,77.777L100,77.777z"/>
<path fill="#707172" stroke="#707172" stroke-miterlimit="10" d="M50.001,62.5c-4.167,0-6.944-2.776-11.111-2.776
	S31.946,62.5,27.779,62.5s-6.944-2.776-11.111-2.776S9.724,62.5,5.557,62.5c-2.083,0-3.819-0.69-5.556-1.387v8.334
	c1.736,0.693,3.472,1.387,5.556,1.387c4.167,0,6.944-2.776,11.111-2.776s6.945,2.776,11.111,2.776s6.944-2.776,11.111-2.776
	s6.945,2.776,11.111,2.776c2.675,0,4.776-1.145,7.042-1.965L50.001,62.5z"/>
<g id="layer1" transform="translate(0,-952.362)">
	<path id="rect4152" fill="#707172" stroke="#707172" stroke-miterlimit="10" d="M72.916,952.362L50,973.196h12.5l-16.667,16.667
		h12.5l-12.5,16.666h20.833v12.5v2.084v2.084c0,2.309,1.857,4.166,4.166,4.166H75c2.309,0,4.166-1.857,4.166-4.166v-2.084v-2.084
		v-12.5H100l-12.5-16.666H100l-16.668-16.667h12.5L72.916,952.362z"/>
</g>
</svg>
