<?xml version="1.0" encoding="utf-8"?>
<!-- Generator: Adobe Illustrator 15.0.0, SVG Export Plug-In . SVG Version: 6.00 Build 0)  -->
<!DOCTYPE svg PUBLIC "-//W3C//DTD SVG 1.1//EN" "http://www.w3.org/Graphics/SVG/1.1/DTD/svg11.dtd">
<svg version="1.1" id="Layer_1" xmlns="http://www.w3.org/2000/svg" xmlns:xlink="http://www.w3.org/1999/xlink" x="0px" y="0px"
	 width="100px" height="99.645px" viewBox="0 0 100 99.645" enable-background="new 0 0 100 99.645" xml:space="preserve">
<path fill="#707172" stroke="#707172" stroke-miterlimit="10" d="M75.255,50.362c-3.749,11.203-6.813,23.1-8.739,31.176
	c1.785,0.714,3.562,1.448,5.707,1.448c4.166,0,6.944-2.777,11.11-2.777c0.202,0,0.39,0.034,0.584,0.047
	c4.088-12.412,8.33-29.213,15.39-29.213c0.383,0,0.693-0.312,0.693-0.695s-0.311-0.694-0.693-0.694
	c-8.486,0-17.781,10.918-25.555,23.144c1.801-6.797,3.934-14.193,6.248-21.127c2.386-0.322,4.473-2.004,5.175-4.466
	c0.941-3.293,3.294-9.125,5.354-11.188c2.316-2.314,2.432-5.994,0.353-8.449c0.765-0.985,1.522-1.798,2.276-2.384
	c1.062-0.825,1.251-2.352,0.427-3.411c-0.821-1.058-2.351-1.25-3.41-0.427c-1.237,0.962-2.463,2.333-3.669,4.021
	c-1.729-0.109-3.492,0.49-4.812,1.812c-5.058,5.055-7.998,14.707-8.534,16.591C72.445,46.262,73.354,48.834,75.255,50.362z"/>
<path fill="#707172" stroke="#707172" stroke-miterlimit="10" d="M83.333,88.533c-4.166,0-6.944,2.777-11.11,2.777
	s-6.945-2.777-11.111-2.777s-6.943,2.777-11.11,2.777s-6.944-2.777-11.111-2.777s-6.944,2.777-11.111,2.777
	s-6.944-2.777-11.111-2.777s-6.944,2.777-11.111,2.777c-2.083,0-3.819-0.691-5.556-1.387v8.334c1.736,0.694,3.472,1.386,5.556,1.386
	c4.167,0,6.944-2.776,11.111-2.776s6.945,2.776,11.111,2.776s6.944-2.776,11.111-2.776s6.945,2.776,11.111,2.776
	c4.167,0,6.944-2.776,11.11-2.776s6.945,2.776,11.111,2.776s6.944-2.776,11.11-2.776c4.167,0,6.944,2.776,11.11,2.776
	c2.084,0,3.82-0.693,5.557-1.389v-8.333c-1.736,0.694-3.473,1.389-5.557,1.389C90.277,91.312,87.5,88.533,83.333,88.533z"/>
<path fill="#707172" stroke="#707172" stroke-miterlimit="10" d="M0.694,62.152c5.071,0.847,9.46,10.104,13.63,18.364
	c0.743-0.178,1.51-0.309,2.342-0.309c4.167,0,6.945,2.777,11.111,2.777c2.274,0,4.136-0.824,6.034-1.575
	c-1.599-7.268-4.135-17.503-7.531-27.239c1.656-1.582,2.382-4.014,1.665-6.353c-0.767-2.498-3.558-10.942-7.276-14.661
	c-1.554-1.558-3.724-2.118-5.727-1.693c-1.719-2.092-3.535-3.735-5.446-4.778c-1.178-0.643-2.654-0.208-3.297,0.971
	c-0.643,1.179-0.209,2.653,0.97,3.297c1.296,0.707,2.563,1.835,3.798,3.28c-1.531,2.415-1.249,5.648,0.857,7.755
	c0.965,1.017,2.953,5.546,4.17,9.497c0.793,2.582,3.109,4.263,5.659,4.394c2.631,7.605,4.852,15.775,6.528,22.832
	C19.485,68.376,8.536,60.764,0.694,60.764C0.311,60.764,0,61.074,0,61.458S0.311,62.152,0.694,62.152z"/>
<path fill="#707172" stroke="#707172" stroke-miterlimit="10" d="M34.028,26.042c10.019,2.227,0.867,33.884,3.985,54.235
	c0.29-0.026,0.573-0.068,0.875-0.068c4.167,0,6.945,2.777,11.111,2.777c2.405,0,4.353-0.923,6.366-1.704
	c0.218-16.758,2.951-32.607,6.146-45.581c2.388-0.374,4.444-2.117,5.089-4.606c0.021-0.086,2.287-8.804,5.037-16.109
	c0.912-2.426,0.219-5.062-1.553-6.74c1.169-3.021,1.927-4.731,1.965-4.814c0.551-1.224,0.008-2.663-1.217-3.214
	c-1.225-0.552-2.662-0.008-3.215,1.214c-0.039,0.087-0.848,1.907-2.083,5.109c-2.433,0.101-4.687,1.623-5.599,4.043
	c-2.98,7.924-5.34,16.999-5.438,17.381c-0.655,2.527,0.335,5.09,2.302,6.564c-2.774,11.26-5.211,24.625-6.028,38.896
	C47.4,48.998,48.2,23.562,34.028,24.653c-0.384,0-0.694,0.312-0.694,0.694S33.644,26.042,34.028,26.042z"/>
</svg>
