<?xml version="1.0" encoding="utf-8"?>
<!-- Generator: Adobe Illustrator 15.0.0, SVG Export Plug-In . SVG Version: 6.00 Build 0)  -->
<!DOCTYPE svg PUBLIC "-//W3C//DTD SVG 1.1//EN" "http://www.w3.org/Graphics/SVG/1.1/DTD/svg11.dtd">
<svg version="1.1" id="Livello_1" xmlns="http://www.w3.org/2000/svg" xmlns:xlink="http://www.w3.org/1999/xlink" x="0px" y="0px"
	 width="100px" height="100px" viewBox="0 0 100 100" enable-background="new 0 0 100 100" xml:space="preserve">
<g>
	<g>
		<path fill="#707172" stroke="#707172" stroke-miterlimit="10" d="M74.998,35.895c-7.594,0-11.966-4.455-15.818-8.388
			c-2.996-3.055-5.587-5.693-9.181-5.693c-3.544,0-6.109,2.621-9.081,5.652c-3.868,3.95-8.252,8.429-15.921,8.429
			c-7.593,0-11.964-4.455-15.82-8.388c-2.995-3.055-5.585-5.693-9.178-5.693V17.11c5.567,0,9.109,3.611,12.536,7.104
			c3.519,3.587,6.844,6.978,12.462,6.978c5.691,0,9.028-3.408,12.561-7.015c3.401-3.475,6.92-7.067,12.441-7.067
			c5.569,0,9.11,3.611,12.537,7.104c3.519,3.587,6.845,6.978,12.462,6.978c5.691,0,9.031-3.408,12.562-7.015
			C90.96,20.702,94.479,17.11,100,17.11v4.704c-3.547,0-6.109,2.621-9.082,5.652C87.052,31.416,82.67,35.895,74.998,35.895z"/>
	</g>
	<g>
		<path fill="#707172" stroke="#707172" stroke-miterlimit="10" d="M74.998,59.393c-7.594,0-11.966-4.455-15.818-8.388
			c-2.996-3.055-5.587-5.693-9.181-5.693c-3.544,0-6.109,2.62-9.081,5.652c-3.868,3.95-8.252,8.429-15.921,8.429
			c-7.593,0-11.964-4.455-15.82-8.388c-2.995-3.055-5.585-5.693-9.178-5.693v-4.704c5.567,0,9.109,3.61,12.536,7.104
			c3.519,3.587,6.844,6.978,12.462,6.978c5.691,0,9.028-3.407,12.561-7.015c3.401-3.475,6.92-7.067,12.441-7.067
			c5.569,0,9.11,3.61,12.537,7.104c3.519,3.587,6.845,6.978,12.462,6.978c5.691,0,9.031-3.407,12.562-7.015
			C90.96,44.2,94.479,40.608,100,40.608v4.704c-3.547,0-6.109,2.62-9.082,5.652C87.052,54.914,82.67,59.393,74.998,59.393z"/>
	</g>
	<g>
		<path fill="#707172" stroke="#707172" stroke-miterlimit="10" d="M74.998,82.891c-7.594,0-11.966-4.455-15.818-8.388
			c-2.996-3.055-5.587-5.692-9.181-5.692c-3.544,0-6.109,2.621-9.081,5.651c-3.868,3.95-8.252,8.429-15.921,8.429
			c-7.593,0-11.964-4.455-15.82-8.388c-2.995-3.055-5.585-5.692-9.178-5.692v-4.705c5.567,0,9.109,3.611,12.536,7.104
			c3.519,3.587,6.844,6.978,12.462,6.978c5.691,0,9.028-3.408,12.561-7.015c3.401-3.475,6.92-7.067,12.441-7.067
			c5.569,0,9.11,3.611,12.537,7.104c3.519,3.587,6.845,6.978,12.462,6.978c5.691,0,9.031-3.408,12.562-7.015
			c3.399-3.475,6.918-7.067,12.439-7.067v4.705c-3.547,0-6.109,2.621-9.082,5.651C87.052,78.412,82.67,82.891,74.998,82.891z"/>
	</g>
</g>
</svg>
